<svg width="50" height="50" viewBox="0 0 50 50" fill="none" xmlns="http://www.w3.org/2000/svg">
<g clip-path="url(#clip0)">
<path d="M50 24.1625V25.8391L49.9515 26.1078C49.8703 26.8406 49.8125 27.5734 49.7 28.2891C49.3158 30.6111 48.4837 32.8363 47.25 34.8406C45.4356 37.8528 42.7982 40.2836 39.6484 41.8469C37.8152 42.7677 35.8347 43.36 33.7968 43.5969C33.3406 43.6531 32.8859 43.7031 32.4375 43.7516H14.8672C14.7781 43.7359 14.6969 43.7109 14.6062 43.7031C12.8444 43.5966 11.116 43.1748 9.5031 42.4578C5.96248 40.8797 3.32654 38.3312 1.60154 34.825C0.843254 33.2717 0.351002 31.6022 0.145288 29.8859L-0.00158691 28.6328V27.0047C0.0140381 26.9156 0.0390381 26.825 0.0468506 26.7359C0.135913 25.1813 0.453101 23.6594 1.00779 22.2031C2.49685 18.2891 5.10154 15.3828 8.79529 13.4953C10.6905 12.535 12.7682 11.9886 14.8906 11.8922C15.9406 11.8438 16.9906 11.8922 18.0234 12.0391C18.0778 12.0454 18.1329 12.0398 18.185 12.0228C18.237 12.0059 18.2848 11.9778 18.325 11.9406C19.8015 10.3994 21.5332 9.12494 23.4437 8.17344C25.2872 7.24624 27.2787 6.64869 29.3281 6.40782C29.8172 6.35157 30.3047 6.30157 30.7843 6.25313H32.2812C32.3797 6.26875 32.4843 6.28594 32.575 6.29375C33.3234 6.38282 34.064 6.44063 34.8047 6.57032C37.075 6.96094 39.2562 7.79844 41.2015 9.03594C44.1974 10.9041 46.5972 13.5891 48.1187 16.775C49.0297 18.6469 49.6156 20.6656 49.8515 22.7328L49.9984 24.1656L50 24.1625ZM22.0375 13.3297C22.0703 13.3703 22.0781 13.3953 22.0937 13.3953C23.1187 13.9156 24.1031 14.5188 25.0312 15.2016C25.0875 15.2422 25.2344 15.2266 25.3078 15.1859C27.8469 13.5422 30.614 12.9813 33.5765 13.5094C36.4812 14.0391 38.85 15.5109 40.6562 17.8719C42.6984 20.5406 43.4797 23.5609 42.9187 26.9125C42.5359 29.1594 41.6484 31.1844 40.1437 32.8703C37.3937 35.9547 33.95 37.2328 29.8984 36.6953C27.4078 36.3609 25.2515 35.2625 23.4687 33.4313C21.1812 31.0875 18.8781 28.7516 16.5844 26.4078C16.275 26.0906 15.9422 25.8469 15.5015 25.7891C15.1326 25.738 14.7571 25.808 14.4314 25.9886C14.1057 26.1692 13.8474 26.4507 13.6953 26.7906C13.4015 27.4094 13.4437 28.1172 14.0859 28.7594C16.6406 31.3141 19.1719 33.8938 21.7281 36.45C22.1672 36.8891 22.639 37.2969 23.1359 37.6625C25 39.0375 27.1078 39.8031 29.3859 40.1125C31.1765 40.3484 32.95 40.3 34.7078 39.8922C38.0687 39.1266 40.8515 37.3859 43.0406 34.6922C44.8324 32.5049 45.9693 29.8556 46.3203 27.05C46.546 25.4128 46.5022 23.7496 46.1906 22.1266C45.6781 19.4813 44.5797 17.1141 42.814 15.0953C39.4453 11.2453 35.2047 9.52813 30.1593 9.91094C28.2308 10.0739 26.3572 10.6363 24.6578 11.5625C23.7244 12.0527 22.8482 12.6448 22.0453 13.3281L22.0375 13.3297ZM20.8094 40.1859C20.7359 40.1203 20.6703 40.0562 20.5984 39.9906C19.5562 38.9891 18.5062 37.9891 17.4734 36.9719C17.3895 36.8789 17.2864 36.8053 17.1712 36.7562C17.0559 36.707 16.9314 36.6836 16.8062 36.6875C15.7562 36.7125 14.714 36.7203 13.6812 36.4844C8.55466 35.3047 5.57498 29.6328 7.46404 24.6438C8.9531 20.7125 13.0797 18.3203 17.1484 19.0531C18.9719 19.3875 20.575 20.1766 21.8922 21.5516C23.4953 23.2359 25.139 24.8641 26.7672 26.5328C27.1328 26.9078 27.5562 27.0859 28.0687 27.0125C28.7203 26.9141 29.2484 26.5969 29.4844 25.9375C29.7203 25.2859 29.6062 24.6766 29.1265 24.1797C27.425 22.4297 25.7656 20.6313 24 18.9547C20.5656 15.7 16.5219 14.7313 12.0453 16.1141C6.03123 17.9781 2.50779 24.2922 3.88279 30.5266C5.13591 36.2156 10.0265 40.1953 15.7406 40.2031H20.5344C20.6078 40.2031 20.689 40.1953 20.8109 40.1875L20.8094 40.1859Z" fill="black"/>
</g>
<defs>
<clipPath id="clip0">
<rect width="50" height="50" fill="white"/>
</clipPath>
</defs>
</svg>
