<svg width="50" height="50" viewBox="0 0 50 50" fill="none" xmlns="http://www.w3.org/2000/svg">
<path d="M25 0.61875C11.1891 0.61875 0 11.8172 0 25.6188C0 36.6703 7.1625 46.0375 17.0891 49.3422C18.3438 49.5781 18.7969 48.8047 18.7969 48.1359C18.7969 47.5422 18.7828 45.9719 18.7734 43.8875C11.8156 45.3938 10.35 40.5266 10.35 40.5266C9.21094 37.6453 7.56719 36.8719 7.56719 36.8719C5.30469 35.3266 7.74688 35.3594 7.74688 35.3594C10.2531 35.5297 11.5719 37.9297 11.5719 37.9297C13.8016 41.7547 17.4219 40.6484 18.8547 40.0047C19.0734 38.3938 19.725 37.2859 20.4344 36.6688C14.8844 36.0422 9.04844 33.8938 9.04844 24.3141C9.04844 21.5781 10.0172 19.35 11.6187 17.6C11.3422 16.9734 10.4953 14.4266 11.8391 10.9828C11.8391 10.9828 13.9313 10.3156 18.7141 13.5469C20.7514 12.9928 22.8527 12.7086 24.9641 12.7016C27.0891 12.7156 29.2125 12.9938 31.2141 13.5469C35.9687 10.3156 38.0594 10.9828 38.0594 10.9828C39.4016 14.4266 38.5547 16.9719 38.3109 17.6C39.8969 19.35 40.8656 21.5797 40.8656 24.3141C40.8656 33.9156 35.0219 36.0328 29.4656 36.6438C30.3344 37.3922 31.1484 38.9313 31.1484 41.2672C31.1484 44.6109 31.1172 47.3047 31.1172 48.1188C31.1172 48.7688 31.5547 49.55 32.8422 49.2984C42.8422 46.0281 49.9969 36.6531 49.9969 25.6172C49.9969 11.8156 38.8078 0.617188 24.9969 0.617188L25 0.61875Z" fill="black"/>
</svg>
