<svg width="50" height="50" viewBox="0 0 50 50" fill="none" xmlns="http://www.w3.org/2000/svg">
<path d="M33.3333 33.3333C37.9357 33.3333 41.6667 29.6024 41.6667 25C41.6667 20.3976 37.9357 16.6667 33.3333 16.6667C28.731 16.6667 25 20.3976 25 25C25 29.6024 28.731 33.3333 33.3333 33.3333Z" fill="#19BCFE"/>
<path fill-rule="evenodd" clip-rule="evenodd" d="M16.6667 50C18.8768 50 20.9965 49.122 22.5593 47.5592C24.1221 45.9964 25 43.8768 25 41.6667V33.3333H16.6667C14.4566 33.3333 12.337 34.2113 10.7742 35.7741C9.21135 37.3369 8.33337 39.4565 8.33337 41.6667C8.33337 43.8768 9.21135 45.9964 10.7742 47.5592C12.337 49.122 14.4566 50 16.6667 50V50Z" fill="#09CF83"/>
<path fill-rule="evenodd" clip-rule="evenodd" d="M16.6667 33.3333H25V16.6667H16.6667C14.4566 16.6667 12.337 17.5446 10.7742 19.1074C9.21135 20.6703 8.33337 22.7899 8.33337 25C8.33337 27.2101 9.21135 29.3298 10.7742 30.8926C12.337 32.4554 14.4566 33.3333 16.6667 33.3333V33.3333Z" fill="#A259FF"/>
<path fill-rule="evenodd" clip-rule="evenodd" d="M16.6667 16.6667H25V0H16.6667C14.4566 0 12.337 0.877974 10.7742 2.44078C9.21135 4.00358 8.33337 6.1232 8.33337 8.33333C8.33337 10.5435 9.21135 12.6631 10.7742 14.2259C12.337 15.7887 14.4566 16.6667 16.6667 16.6667V16.6667Z" fill="#F24E1E"/>
<path fill-rule="evenodd" clip-rule="evenodd" d="M33.3333 16.6667H25V0H33.3333C35.5435 0 37.6631 0.877974 39.2259 2.44078C40.7887 4.00358 41.6667 6.1232 41.6667 8.33333C41.6667 10.5435 40.7887 12.6631 39.2259 14.2259C37.6631 15.7887 35.5435 16.6667 33.3333 16.6667Z" fill="#FF7262"/>
</svg>
