<svg width="25" height="25" viewBox="0 0 25 25" fill="none" xmlns="http://www.w3.org/2000/svg">
<path d="M5.85938 3.90625C5.34251 3.90993 4.84786 4.11689 4.48238 4.48238C4.11689 4.84786 3.90993 5.34251 3.90625 5.85938V19.1406C3.90625 20.2086 4.79141 21.0938 5.85938 21.0938H19.1406C20.2086 21.0938 21.0938 20.2086 21.0938 19.1406V5.85938C21.0938 4.79141 20.2086 3.90625 19.1406 3.90625H5.85938ZM5.85938 5.46875H19.1406C19.3633 5.46875 19.5312 5.63672 19.5312 5.85938V19.1406C19.5312 19.3633 19.3633 19.5312 19.1406 19.5312H5.85938C5.80776 19.5324 5.75643 19.5231 5.70851 19.5039C5.66059 19.4847 5.61706 19.456 5.58055 19.4195C5.54404 19.3829 5.51531 19.3394 5.49609 19.2915C5.47688 19.2436 5.46758 19.1922 5.46875 19.1406V5.85938C5.46875 5.63672 5.63672 5.46875 5.85938 5.46875ZM8.15469 6.81172C7.97565 6.8074 7.79756 6.83893 7.63089 6.90446C7.46423 6.96999 7.31235 7.06819 7.1842 7.19329C7.05605 7.31839 6.95421 7.46785 6.88468 7.63289C6.81515 7.79793 6.77933 7.97521 6.77933 8.1543C6.77933 8.33338 6.81515 8.51066 6.88468 8.6757C6.95421 8.84074 7.05605 8.9902 7.1842 9.1153C7.31235 9.2404 7.46423 9.3386 7.63089 9.40413C7.79756 9.46966 7.97565 9.50119 8.15469 9.49688C8.50515 9.48842 8.83842 9.34326 9.0833 9.0924C9.32819 8.84154 9.46527 8.50487 9.46527 8.1543C9.46527 7.80373 9.32819 7.46706 9.0833 7.2162C8.83842 6.96533 8.50515 6.82017 8.15469 6.81172V6.81172ZM15.2094 10.3758C14.0898 10.3758 13.3453 10.9891 13.0375 11.5719H12.9883V10.5469H10.7906V17.9688H13.0859V14.3063C13.0859 13.3391 13.2781 12.4023 14.4773 12.4023C15.6586 12.4023 15.6742 13.4945 15.6742 14.3555V17.9688H17.9688V13.8914C17.9688 11.8961 17.5445 10.3758 15.2102 10.3758H15.2094ZM7.03125 10.5469V17.9688H9.35078V10.5469H7.03125Z" fill="#F0FFF0"/>
</svg>
