<svg width="50" height="31" viewBox="0 0 50 31" fill="none" xmlns="http://www.w3.org/2000/svg">
<path d="M24.7287 30.617C24.5592 30.617 24.401 30.5719 24.254 30.4928L22.7509 29.5999C22.5249 29.4756 22.6379 29.4304 22.7058 29.4078C23.0109 29.3061 23.0674 29.2834 23.3838 29.1027C23.4178 29.08 23.463 29.0913 23.4969 29.1139L24.6497 29.8033C24.6949 29.8259 24.7514 29.8259 24.7852 29.8033L29.2948 27.1926C29.3399 27.17 29.3626 27.1247 29.3626 27.0683V21.8581C29.3626 21.8015 29.3399 21.7564 29.2948 21.7337L24.7852 19.1343C24.7401 19.1116 24.6835 19.1116 24.6497 19.1343L20.1402 21.7337C20.095 21.7563 20.0723 21.8128 20.0723 21.858V27.0682C20.0723 27.1135 20.095 27.1699 20.1402 27.1926L21.3721 27.9046C22.0389 28.2436 22.4571 27.8481 22.4571 27.4525V22.3101C22.4571 22.2423 22.5136 22.1745 22.5927 22.1745H23.1691C23.2369 22.1745 23.3047 22.231 23.3047 22.3101V27.4525C23.3047 28.3453 22.8187 28.8653 21.9711 28.8653C21.7112 28.8653 21.5078 28.8653 20.9313 28.5827L19.7446 27.9046C19.4508 27.7351 19.27 27.4186 19.27 27.0795V21.8694C19.27 21.5303 19.4508 21.2138 19.7446 21.0443L24.254 18.4336C24.5367 18.2753 24.921 18.2753 25.2035 18.4336L29.7129 21.0443C30.0068 21.2138 30.1877 21.5303 30.1877 21.8694V27.0795C30.1877 27.4186 30.0068 27.7351 29.7129 27.9046L25.2035 30.5153C25.0565 30.5832 24.887 30.617 24.7288 30.617H24.7287ZM26.1189 27.0344C24.1411 27.0344 23.7342 26.1302 23.7342 25.3617C23.7342 25.2938 23.7907 25.2261 23.8698 25.2261H24.4575C24.5253 25.2261 24.5818 25.2712 24.5818 25.3391C24.6723 25.9381 24.9322 26.2319 26.1302 26.2319C27.0796 26.2319 27.4866 26.0172 27.4866 25.5086C27.4866 25.2147 27.3734 25.0001 25.8929 24.8531C24.6609 24.7287 23.8924 24.4575 23.8924 23.4743C23.8924 22.5588 24.661 22.0162 25.9494 22.0162C27.396 22.0162 28.1081 22.5136 28.1985 23.5985C28.1985 23.6325 28.1872 23.6663 28.1646 23.7003C28.1419 23.7229 28.1081 23.7454 28.0742 23.7454H27.4865C27.4299 23.7454 27.3734 23.7003 27.3622 23.6437C27.2265 23.0222 26.8762 22.8187 25.9494 22.8187C24.9096 22.8187 24.7852 23.1804 24.7852 23.4516C24.7852 23.7794 24.9322 23.8811 26.3336 24.0619C27.7238 24.2428 28.3794 24.5027 28.3794 25.4746C28.368 26.4692 27.5543 27.0344 26.1189 27.0344Z" fill="#539E43"/>
<path d="M10.7369 10.2397C10.7369 10.0363 10.6239 9.84401 10.443 9.74231L5.65101 6.98467C5.5718 6.9394 5.48144 6.91681 5.39109 6.90546H5.34581C5.25545 6.90546 5.165 6.9394 5.08589 6.98467L0.293855 9.74231C0.112946 9.84401 0 10.0362 0 10.2397L0.0113435 17.6537C0.0113435 17.7554 0.0678653 17.8571 0.158222 17.9024C0.248676 17.9589 0.361622 17.9589 0.440831 17.9024L3.28892 16.2749C3.46974 16.1732 3.58278 15.981 3.58278 15.7776V12.3079C3.58278 12.1045 3.69573 11.9123 3.87663 11.8106L5.08589 11.1099C5.17634 11.0534 5.27804 11.0307 5.37974 11.0307C5.48144 11.0307 5.58314 11.0534 5.66235 11.1099L6.87161 11.8106C7.05251 11.9123 7.16546 12.1044 7.16546 12.3079V15.7776C7.16546 15.981 7.2785 16.1732 7.45932 16.2749L10.3074 17.9024C10.3979 17.9589 10.5108 17.9589 10.6013 17.9024C10.6917 17.8571 10.7482 17.7554 10.7482 17.6537L10.7369 10.2397Z" fill="#333333"/>
<path d="M33.7703 0.0339571C33.6799 -0.011319 33.5669 -0.011319 33.4877 0.0339571C33.3973 0.0904789 33.3408 0.180836 33.3408 0.282536V7.62891C33.3408 7.69667 33.307 7.76444 33.2391 7.80972C33.1713 7.84355 33.1035 7.84355 33.0357 7.80972L31.8377 7.12031C31.7499 7.0703 31.6505 7.044 31.5495 7.044C31.4484 7.044 31.3491 7.0703 31.2612 7.12031L26.4692 9.88929C26.2884 9.99099 26.1754 10.1831 26.1754 10.3865V15.9132C26.1754 16.1166 26.2884 16.3088 26.4692 16.4105L31.2612 19.1795C31.3491 19.2295 31.4484 19.2558 31.5495 19.2558C31.6505 19.2558 31.7499 19.2295 31.8377 19.1795L36.6297 16.4105C36.8106 16.3088 36.9236 16.1167 36.9236 15.9132V2.13612C36.9236 1.92138 36.8106 1.72932 36.6297 1.62752L33.7704 0.0339571H33.7703ZM33.3296 14.0936C33.3296 14.1501 33.307 14.1953 33.2617 14.2179L31.623 15.1672C31.6001 15.1784 31.5749 15.1842 31.5495 15.1842C31.524 15.1842 31.4989 15.1784 31.476 15.1672L29.8372 14.2179C29.792 14.1953 29.7694 14.1388 29.7694 14.0936V12.1949C29.7694 12.1383 29.792 12.0932 29.8372 12.0706L31.476 11.1211C31.4989 11.11 31.524 11.1042 31.5495 11.1042C31.5749 11.1042 31.6001 11.11 31.623 11.1211L33.2617 12.0706C33.307 12.0931 33.3296 12.1497 33.3296 12.1949V14.0936Z" fill="#333333"/>
<path d="M49.7174 12.1497C49.8983 12.048 50 11.8558 50 11.6523V10.3074C50 10.104 49.887 9.91187 49.7174 9.81017L44.9593 7.05254C44.8715 7.00254 44.7722 6.97626 44.6711 6.97626C44.5701 6.97626 44.4708 7.00254 44.3829 7.05254L39.5909 9.82142C39.41 9.92312 39.2971 10.1153 39.2971 10.3188V15.8454C39.2971 16.0488 39.41 16.2409 39.5909 16.3426L44.349 19.0551C44.5299 19.1568 44.7446 19.1568 44.9141 19.0551L47.7961 17.4504C47.8865 17.4051 47.943 17.3034 47.943 17.2017C47.943 17.1 47.8865 16.9983 47.7961 16.953L42.9814 14.1841C42.8911 14.1276 42.8346 14.0372 42.8346 13.9355V12.2063C42.8346 12.1046 42.8911 12.0029 42.9814 11.9576L44.4846 11.0986C44.5286 11.0709 44.5796 11.0563 44.6316 11.0563C44.6836 11.0563 44.7345 11.0709 44.7785 11.0986L46.2816 11.9576C46.3721 12.0141 46.4286 12.1045 46.4286 12.2063V13.5625C46.4286 13.6642 46.4851 13.7659 46.5755 13.8111C46.6659 13.8676 46.7789 13.8676 46.8693 13.8111L49.7174 12.1497V12.1497Z" fill="#333333"/>
<path d="M44.5977 11.8898C44.6145 11.8787 44.6341 11.8728 44.6542 11.8728C44.6742 11.8728 44.6939 11.8787 44.7106 11.8898L45.6261 12.4209C45.6601 12.4434 45.6827 12.4774 45.6827 12.5226V13.585C45.6827 13.6302 45.6601 13.6641 45.6261 13.6867L44.7106 14.2179C44.6939 14.2289 44.6742 14.2348 44.6542 14.2348C44.6341 14.2348 44.6145 14.2289 44.5977 14.2179L43.6822 13.6867C43.6483 13.6641 43.6257 13.6302 43.6257 13.585V12.5226C43.6257 12.4774 43.6483 12.4434 43.6822 12.4209L44.5977 11.8898V11.8898Z" fill="#539E43"/>
<mask id="mask0" style="mask-type:alpha" maskUnits="userSpaceOnUse" x="13" y="6" width="11" height="14">
<path d="M18.75 7.07513C18.6622 7.02513 18.5629 6.99885 18.4618 6.99885C18.3608 6.99885 18.2615 7.02513 18.1736 7.07513L13.4155 9.82132C13.2346 9.92302 13.1329 10.1152 13.1329 10.3186V15.8227C13.1329 16.0261 13.246 16.2183 13.4155 16.32L18.1736 19.0664C18.2615 19.1163 18.3608 19.1426 18.4618 19.1426C18.5629 19.1426 18.6622 19.1163 18.75 19.0664L23.5082 16.32C23.689 16.2183 23.7908 16.0261 23.7908 15.8227V10.3187C23.7908 10.1153 23.6777 9.92312 23.5082 9.82142L18.75 7.07513Z" fill="white"/>
</mask>
<g mask="url(#mask0)">
<path d="M18.75 7.07513C18.6622 7.02513 18.5629 6.99885 18.4618 6.99885C18.3608 6.99885 18.2615 7.02513 18.1736 7.07513L13.4155 9.82132C13.2346 9.92302 13.1329 10.1152 13.1329 10.3186V15.8227C13.1329 16.0261 13.246 16.2183 13.4155 16.32L18.1736 19.0664C18.2615 19.1163 18.3608 19.1426 18.4618 19.1426C18.5629 19.1426 18.6622 19.1163 18.75 19.0664L23.5082 16.32C23.689 16.2183 23.7908 16.0261 23.7908 15.8227V10.3187C23.7908 10.1153 23.6777 9.92312 23.5082 9.82142L18.75 7.07513Z" fill="url(#paint0_linear)"/>
<path d="M23.5194 9.82143L18.7387 7.07513C18.6917 7.05141 18.6425 7.03247 18.5917 7.01861L13.2346 16.1959C13.2789 16.2501 13.3325 16.296 13.3929 16.3315L18.1736 19.0779C18.3092 19.157 18.4674 19.1796 18.6143 19.1343L23.6438 9.93457C23.6098 9.88939 23.5646 9.85536 23.5194 9.82152V9.82143Z" fill="url(#paint1_linear)"/>
<path fill-rule="evenodd" clip-rule="evenodd" d="M23.5307 16.3201C23.6663 16.241 23.768 16.1053 23.8133 15.9584L18.569 7.00727C18.4334 6.98468 18.2864 6.99592 18.1622 7.07503L13.4153 9.81018L18.5351 19.1456C18.6095 19.1334 18.6818 19.1106 18.7498 19.0778L23.5306 16.3202L23.5307 16.3201Z" fill="url(#paint2_linear)"/>
<path fill-rule="evenodd" clip-rule="evenodd" d="M23.5307 16.3201L18.7613 19.0665C18.6939 19.1008 18.6214 19.1237 18.5465 19.1342L18.637 19.3038L23.9263 16.2411V16.1732L23.7906 15.9471C23.768 16.1053 23.6663 16.241 23.5307 16.3201V16.3201Z" fill="url(#paint3_linear)"/>
<path fill-rule="evenodd" clip-rule="evenodd" d="M23.5307 16.3201L18.7613 19.0665C18.6939 19.1008 18.6214 19.1237 18.5465 19.1342L18.637 19.3038L23.9263 16.2411V16.1732L23.7906 15.9471C23.768 16.1053 23.6663 16.241 23.5307 16.3201V16.3201Z" fill="url(#paint4_linear)"/>
</g>
<defs>
<linearGradient id="paint0_linear" x1="20.4003" y1="9.12243" x2="15.185" y2="17.3173" gradientUnits="userSpaceOnUse">
<stop stop-color="#41873F"/>
<stop offset="0.3288" stop-color="#418B3D"/>
<stop offset="0.6352" stop-color="#419637"/>
<stop offset="0.9319" stop-color="#3FA92D"/>
<stop offset="1" stop-color="#3FAE2A"/>
</linearGradient>
<linearGradient id="paint1_linear" x1="17.7394" y1="13.7155" x2="30.8009" y2="6.61907" gradientUnits="userSpaceOnUse">
<stop offset="0.1376" stop-color="#41873F"/>
<stop offset="0.4032" stop-color="#54A044"/>
<stop offset="0.7136" stop-color="#66B848"/>
<stop offset="0.9081" stop-color="#6CC04A"/>
</linearGradient>
<linearGradient id="paint2_linear" x1="12.959" y1="13.0709" x2="23.9692" y2="13.0709" gradientUnits="userSpaceOnUse">
<stop offset="0.09192" stop-color="#6CC04A"/>
<stop offset="0.2864" stop-color="#66B848"/>
<stop offset="0.5968" stop-color="#54A044"/>
<stop offset="0.8624" stop-color="#41873F"/>
</linearGradient>
<linearGradient id="paint3_linear" x1="12.9591" y1="17.6347" x2="23.9691" y2="17.6347" gradientUnits="userSpaceOnUse">
<stop offset="0.09192" stop-color="#6CC04A"/>
<stop offset="0.2864" stop-color="#66B848"/>
<stop offset="0.5968" stop-color="#54A044"/>
<stop offset="0.8624" stop-color="#41873F"/>
</linearGradient>
<linearGradient id="paint4_linear" x1="25.5732" y1="8.86216" x2="22.7839" y2="23.4779" gradientUnits="userSpaceOnUse">
<stop stop-color="#41873F"/>
<stop offset="0.3288" stop-color="#418B3D"/>
<stop offset="0.6352" stop-color="#419637"/>
<stop offset="0.9319" stop-color="#3FA92D"/>
<stop offset="1" stop-color="#3FAE2A"/>
</linearGradient>
</defs>
</svg>
