<svg width="50" height="50" viewBox="0 0 50 50" fill="none" xmlns="http://www.w3.org/2000/svg">
<path d="M44.825 3.125H5.175C4.04282 3.125 3.125 4.04282 3.125 5.175V44.825C3.125 45.9572 4.04282 46.875 5.175 46.875H44.825C45.9572 46.875 46.875 45.9572 46.875 44.825V5.175C46.875 4.04282 45.9572 3.125 44.825 3.125Z" fill="#3178C6"/>
<path fill-rule="evenodd" clip-rule="evenodd" d="M28.5078 37.1234V41.9172C29.3788 42.3471 30.307 42.6497 31.264 42.8156C32.3699 43.0198 33.4925 43.1202 34.6171 43.1156C35.7132 43.1208 36.8068 43.0103 37.8796 42.7859C38.8429 42.5913 39.7619 42.2205 40.5906 41.6922C41.3598 41.1956 41.9939 40.5159 42.4359 39.7141C43.2275 38.0536 43.3319 36.1479 42.7265 34.4109C42.471 33.7614 42.0904 33.1684 41.6062 32.6656C41.0865 32.131 40.4961 31.67 39.8515 31.2953C39.1094 30.8607 38.3383 30.4775 37.5437 30.1484C36.9187 29.8891 36.3562 29.637 35.8562 29.3922C35.4121 29.1796 34.9871 28.9292 34.5859 28.6438C34.2717 28.4235 33.9987 28.1495 33.7796 27.8344C33.5904 27.5483 33.4918 27.2117 33.4968 26.8687C33.4927 26.5531 33.5806 26.243 33.75 25.9766C33.9339 25.6977 34.1792 25.4647 34.4671 25.2953C34.8191 25.0881 35.2021 24.9388 35.6015 24.8531C36.0918 24.7442 36.593 24.6918 37.0953 24.6969C37.5177 24.6983 37.9395 24.7286 38.3578 24.7875C38.8095 24.8486 39.2564 24.941 39.6953 25.0641C40.1417 25.1878 40.5783 25.3445 41.0015 25.5328C41.4122 25.7159 41.805 25.9366 42.175 26.1922V21.7188C41.4048 21.4274 40.6061 21.2179 39.7921 21.0938C38.8092 20.9507 37.8167 20.8833 36.8234 20.8922C35.7376 20.8863 34.655 21.0096 33.5984 21.2594C32.6433 21.4776 31.7352 21.8655 30.9171 22.4047C30.1573 22.9109 29.5298 23.5919 29.0875 24.3906C28.6187 25.2776 28.3867 26.2706 28.414 27.2734C28.3794 28.5997 28.8162 29.8952 29.6468 30.9297C30.6659 32.0767 31.9509 32.9561 33.389 33.4906C34.0453 33.7615 34.6572 34.0266 35.225 34.2859C35.7372 34.5139 36.2295 34.7841 36.6968 35.0937C37.0738 35.339 37.4048 35.6483 37.675 36.0078C37.9125 36.3339 38.0385 36.7279 38.0343 37.1313C38.0365 37.4335 37.9589 37.731 37.8093 37.9938C37.6432 38.2761 37.4096 38.5128 37.1296 38.6828C36.7793 38.8964 36.396 39.0506 35.9953 39.1391C35.4733 39.2558 34.9394 39.3108 34.4046 39.3031C33.3551 39.3012 32.314 39.1161 31.3281 38.7563C30.2981 38.3846 29.3429 37.8316 28.5078 37.1234V37.1234ZM20.4546 25.1891H26.7046V21.2406H9.27808V25.1891H15.5V42.7734H20.4546V25.1891Z" fill="white"/>
</svg>
